<mxfile host="Electron" modified="2023-08-16T10:49:06.249Z" agent="Mozilla/5.0 (Windows NT 10.0; Win64; x64) AppleWebKit/537.36 (KHTML, like Gecko) draw.io/21.6.8 Chrome/114.0.5735.289 Electron/25.5.0 Safari/537.36" etag="tljVZAedN5rYXasYjJfe" version="21.6.8" type="device">
  <diagram name="Page-1" id="j2m0L8MKRR5pyremR1uO">
    <mxGraphModel dx="2938" dy="1188" grid="1" gridSize="10" guides="1" tooltips="1" connect="1" arrows="1" fold="1" page="1" pageScale="1" pageWidth="850" pageHeight="1100" math="0" shadow="0">
      <root>
        <mxCell id="0" />
        <mxCell id="1" parent="0" />
        <mxCell id="ghCQ3Y4fkqYhE1xKkqQp-1" value="" style="shape=cloud;whiteSpace=wrap;html=1;" parent="1" vertex="1">
          <mxGeometry x="325.5" y="520" width="220" height="140" as="geometry" />
        </mxCell>
        <mxCell id="ghCQ3Y4fkqYhE1xKkqQp-2" value="" style="verticalLabelPosition=bottom;sketch=0;aspect=fixed;html=1;verticalAlign=top;strokeColor=none;align=center;outlineConnect=0;shape=mxgraph.citrix.web_server;" parent="1" vertex="1">
          <mxGeometry x="133.75" y="290" width="76.5" height="90" as="geometry" />
        </mxCell>
        <mxCell id="ghCQ3Y4fkqYhE1xKkqQp-3" value="" style="verticalLabelPosition=bottom;sketch=0;aspect=fixed;html=1;verticalAlign=top;strokeColor=none;align=center;outlineConnect=0;shape=mxgraph.citrix.web_server;" parent="1" vertex="1">
          <mxGeometry x="639" y="290" width="76.5" height="90" as="geometry" />
        </mxCell>
        <mxCell id="ghCQ3Y4fkqYhE1xKkqQp-4" value="" style="verticalLabelPosition=bottom;sketch=0;aspect=fixed;html=1;verticalAlign=top;strokeColor=none;align=center;outlineConnect=0;shape=mxgraph.citrix.web_server;" parent="1" vertex="1">
          <mxGeometry x="133.75" y="730" width="76.5" height="90" as="geometry" />
        </mxCell>
        <mxCell id="ghCQ3Y4fkqYhE1xKkqQp-5" value="" style="verticalLabelPosition=bottom;sketch=0;aspect=fixed;html=1;verticalAlign=top;strokeColor=none;align=center;outlineConnect=0;shape=mxgraph.citrix.web_server;" parent="1" vertex="1">
          <mxGeometry x="397.25" y="730" width="76.5" height="90" as="geometry" />
        </mxCell>
        <mxCell id="ghCQ3Y4fkqYhE1xKkqQp-6" value="Internet" style="text;strokeColor=none;fillColor=none;html=1;fontSize=24;fontStyle=1;verticalAlign=middle;align=center;" parent="1" vertex="1">
          <mxGeometry x="385.5" y="570" width="100" height="40" as="geometry" />
        </mxCell>
        <mxCell id="ghCQ3Y4fkqYhE1xKkqQp-7" value="&lt;font style=&quot;font-size: 17px;&quot;&gt;porssisahko.net&lt;/font&gt;" style="text;strokeColor=none;fillColor=none;html=1;fontSize=24;fontStyle=1;verticalAlign=middle;align=center;" parent="1" vertex="1">
          <mxGeometry x="122" y="230" width="100" height="40" as="geometry" />
        </mxCell>
        <mxCell id="ghCQ3Y4fkqYhE1xKkqQp-8" value="&lt;font style=&quot;font-size: 17px;&quot;&gt;ilmatieteenlaitos.fi&lt;/font&gt;" style="text;strokeColor=none;fillColor=none;html=1;fontSize=24;fontStyle=1;verticalAlign=middle;align=center;" parent="1" vertex="1">
          <mxGeometry x="627.25" y="230" width="100" height="40" as="geometry" />
        </mxCell>
        <mxCell id="ghCQ3Y4fkqYhE1xKkqQp-9" value="&lt;font style=&quot;font-size: 17px;&quot;&gt;NGINX reverse proxy&lt;/font&gt;" style="text;strokeColor=none;fillColor=none;html=1;fontSize=24;fontStyle=1;verticalAlign=middle;align=center;" parent="1" vertex="1">
          <mxGeometry x="122" y="830" width="100" height="40" as="geometry" />
        </mxCell>
        <mxCell id="ghCQ3Y4fkqYhE1xKkqQp-10" value="&lt;font style=&quot;font-size: 17px;&quot;&gt;Node.js web browser&lt;/font&gt;" style="text;strokeColor=none;fillColor=none;html=1;fontSize=24;fontStyle=1;verticalAlign=middle;align=center;" parent="1" vertex="1">
          <mxGeometry x="385.5" y="830" width="100" height="40" as="geometry" />
        </mxCell>
        <mxCell id="ghCQ3Y4fkqYhE1xKkqQp-11" value="" style="verticalLabelPosition=bottom;sketch=0;aspect=fixed;html=1;verticalAlign=top;strokeColor=none;align=center;outlineConnect=0;shape=mxgraph.citrix.database_server;" parent="1" vertex="1">
          <mxGeometry x="637.25" y="730" width="80" height="90" as="geometry" />
        </mxCell>
        <mxCell id="ghCQ3Y4fkqYhE1xKkqQp-12" value="&lt;font style=&quot;font-size: 17px;&quot;&gt;PostgreSQL database server&lt;/font&gt;" style="text;strokeColor=none;fillColor=none;html=1;fontSize=24;fontStyle=1;verticalAlign=middle;align=center;" parent="1" vertex="1">
          <mxGeometry x="627.25" y="830" width="100" height="40" as="geometry" />
        </mxCell>
        <mxCell id="ghCQ3Y4fkqYhE1xKkqQp-15" value="" style="curved=1;endArrow=classic;html=1;rounded=0;exitX=0.25;exitY=0.25;exitDx=0;exitDy=0;exitPerimeter=0;" parent="1" source="ghCQ3Y4fkqYhE1xKkqQp-1" target="ghCQ3Y4fkqYhE1xKkqQp-2" edge="1">
          <mxGeometry width="50" height="50" relative="1" as="geometry">
            <mxPoint x="337.25" y="430" as="sourcePoint" />
            <mxPoint x="207.25" y="390" as="targetPoint" />
            <Array as="points">
              <mxPoint x="307.25" y="540" />
              <mxPoint x="247.25" y="500" />
              <mxPoint x="277.25" y="380" />
            </Array>
          </mxGeometry>
        </mxCell>
        <mxCell id="ghCQ3Y4fkqYhE1xKkqQp-17" value="" style="curved=1;endArrow=classic;html=1;rounded=0;exitX=0.88;exitY=0.25;exitDx=0;exitDy=0;exitPerimeter=0;" parent="1" source="ghCQ3Y4fkqYhE1xKkqQp-1" target="ghCQ3Y4fkqYhE1xKkqQp-3" edge="1">
          <mxGeometry width="50" height="50" relative="1" as="geometry">
            <mxPoint x="577.25" y="450" as="sourcePoint" />
            <mxPoint x="627.25" y="400" as="targetPoint" />
            <Array as="points">
              <mxPoint x="647.25" y="520" />
              <mxPoint x="577.25" y="400" />
            </Array>
          </mxGeometry>
        </mxCell>
        <mxCell id="ghCQ3Y4fkqYhE1xKkqQp-18" value="" style="curved=1;endArrow=classic;html=1;rounded=0;exitX=0.13;exitY=0.77;exitDx=0;exitDy=0;exitPerimeter=0;" parent="1" source="ghCQ3Y4fkqYhE1xKkqQp-1" target="ghCQ3Y4fkqYhE1xKkqQp-4" edge="1">
          <mxGeometry width="50" height="50" relative="1" as="geometry">
            <mxPoint x="237.25" y="650" as="sourcePoint" />
            <mxPoint x="237.25" y="730" as="targetPoint" />
            <Array as="points">
              <mxPoint x="297.25" y="710" />
              <mxPoint x="187.25" y="650" />
            </Array>
          </mxGeometry>
        </mxCell>
        <mxCell id="ghCQ3Y4fkqYhE1xKkqQp-20" value="" style="curved=1;endArrow=classic;html=1;rounded=0;exitX=0.8;exitY=0.8;exitDx=0;exitDy=0;exitPerimeter=0;" parent="1" source="ghCQ3Y4fkqYhE1xKkqQp-1" target="ghCQ3Y4fkqYhE1xKkqQp-11" edge="1">
          <mxGeometry width="50" height="50" relative="1" as="geometry">
            <mxPoint x="567.25" y="700" as="sourcePoint" />
            <mxPoint x="617.25" y="650" as="targetPoint" />
            <Array as="points">
              <mxPoint x="627.25" y="640" />
              <mxPoint x="557.25" y="749" />
            </Array>
          </mxGeometry>
        </mxCell>
        <mxCell id="ghCQ3Y4fkqYhE1xKkqQp-22" value="" style="curved=1;endArrow=classic;html=1;rounded=0;exitX=0.55;exitY=0.95;exitDx=0;exitDy=0;exitPerimeter=0;" parent="1" source="ghCQ3Y4fkqYhE1xKkqQp-1" target="ghCQ3Y4fkqYhE1xKkqQp-5" edge="1">
          <mxGeometry width="50" height="50" relative="1" as="geometry">
            <mxPoint x="417.25" y="720" as="sourcePoint" />
            <mxPoint x="467.25" y="670" as="targetPoint" />
            <Array as="points">
              <mxPoint x="517.25" y="730" />
              <mxPoint x="387.25" y="690" />
            </Array>
          </mxGeometry>
        </mxCell>
        <mxCell id="k59GtesLESAVn46tGv3F-1" value="" style="verticalLabelPosition=bottom;sketch=0;aspect=fixed;html=1;verticalAlign=top;strokeColor=none;align=center;outlineConnect=0;shape=mxgraph.citrix.remote_office;" vertex="1" parent="1">
          <mxGeometry x="100" y="569" width="92" height="41.5" as="geometry" />
        </mxCell>
        <mxCell id="k59GtesLESAVn46tGv3F-2" value="&lt;font style=&quot;font-size: 17px;&quot;&gt;Raspberry Pi microcontroller&lt;/font&gt;" style="text;strokeColor=none;fillColor=none;html=1;fontSize=24;fontStyle=1;verticalAlign=middle;align=center;" vertex="1" parent="1">
          <mxGeometry x="92" y="610" width="100" height="40" as="geometry" />
        </mxCell>
        <mxCell id="k59GtesLESAVn46tGv3F-3" value="" style="curved=1;endArrow=classic;html=1;rounded=0;entryX=0.761;entryY=0.506;entryDx=0;entryDy=0;entryPerimeter=0;exitX=0.16;exitY=0.55;exitDx=0;exitDy=0;exitPerimeter=0;" edge="1" parent="1" source="ghCQ3Y4fkqYhE1xKkqQp-1" target="k59GtesLESAVn46tGv3F-1">
          <mxGeometry width="50" height="50" relative="1" as="geometry">
            <mxPoint x="250" y="600" as="sourcePoint" />
            <mxPoint x="300" y="550" as="targetPoint" />
            <Array as="points">
              <mxPoint x="300" y="600" />
              <mxPoint x="250" y="550" />
            </Array>
          </mxGeometry>
        </mxCell>
      </root>
    </mxGraphModel>
  </diagram>
</mxfile>
